<svg xmlns="http://www.w3.org/2000/svg" viewBox="0 0 24 16" role="img" aria-label="Flag of the United States">
  <rect width="24" height="16" fill="#B22234"/>
  <g fill="#FFFFFF">
    <rect y="1.23" width="24" height="1.23"/>
    <rect y="3.69" width="24" height="1.23"/>
    <rect y="6.15" width="24" height="1.23"/>
    <rect y="8.61" width="24" height="1.23"/>
    <rect y="11.07" width="24" height="1.23"/>
    <rect y="13.53" width="24" height="1.23"/>
  </g>
  <rect width="10.4" height="8.61" fill="#3C3B6E"/>
  <g fill="#FFFFFF" opacity="0.9">
    <circle cx="1.3" cy="1.2" r="0.35"/>
    <circle cx="3.2" cy="1.2" r="0.35"/>
    <circle cx="5.1" cy="1.2" r="0.35"/>
    <circle cx="7" cy="1.2" r="0.35"/>
    <circle cx="8.9" cy="1.2" r="0.35"/>
    <circle cx="2.25" cy="2.35" r="0.35"/>
    <circle cx="4.15" cy="2.35" r="0.35"/>
    <circle cx="6.05" cy="2.35" r="0.35"/>
    <circle cx="7.95" cy="2.35" r="0.35"/>
    <circle cx="1.3" cy="3.5" r="0.35"/>
    <circle cx="3.2" cy="3.5" r="0.35"/>
    <circle cx="5.1" cy="3.5" r="0.35"/>
    <circle cx="7" cy="3.5" r="0.35"/>
    <circle cx="8.9" cy="3.5" r="0.35"/>
    <circle cx="2.25" cy="4.65" r="0.35"/>
    <circle cx="4.15" cy="4.65" r="0.35"/>
    <circle cx="6.05" cy="4.65" r="0.35"/>
    <circle cx="7.95" cy="4.65" r="0.35"/>
    <circle cx="1.3" cy="5.8" r="0.35"/>
    <circle cx="3.2" cy="5.8" r="0.35"/>
    <circle cx="5.1" cy="5.8" r="0.35"/>
    <circle cx="7" cy="5.8" r="0.35"/>
    <circle cx="8.9" cy="5.8" r="0.35"/>
    <circle cx="2.25" cy="6.95" r="0.35"/>
    <circle cx="4.15" cy="6.95" r="0.35"/>
    <circle cx="6.05" cy="6.95" r="0.35"/>
    <circle cx="7.95" cy="6.95" r="0.35"/>
  </g>
</svg>
